<!-- Generator: Adobe Illustrator 22.1.0, SVG Export Plug-In  -->
<svg version="1.1"
	 xmlns="http://www.w3.org/2000/svg" xmlns:xlink="http://www.w3.org/1999/xlink" xmlns:a="http://ns.adobe.com/AdobeSVGViewerExtensions/3.0/"
	 x="0px" y="0px" width="494.86px" height="100px" viewBox="0 0 494.86 100" style="enable-background:new 0 0 494.86 100;"
	 xml:space="preserve">
<style type="text/css">
	.st0{fill:#E1824B;}
	.st1{fill:#2A8D68;}
	.st2{fill:#58B8BC;}
	.st3{fill:#BA1D4E;}
</style>
<defs>
</defs>
<g>
	<path class="st0" d="M330.366,100c-0.005-0.334-0.025-0.665-0.025-1c0-36.185,29.334-65.519,65.519-65.519
		S461.379,62.815,461.379,99c0,0.335-0.02,0.666-0.025,1h33.494c0.003-0.334,0.013-0.666,0.013-1c0-54.676-44.324-99-99-99
		s-99,44.324-99,99c0,0.334,0.009,0.666,0.013,1H330.366z"/>
	<path class="st1" d="M132.441,100c-0.005-0.334-0.025-0.665-0.025-1c0-36.185,29.334-65.519,65.519-65.519
		S263.453,62.815,263.453,99c0,0.335-0.02,0.666-0.025,1h33.494c0.003-0.334,0.013-0.666,0.013-1c0-54.676-44.324-99-99-99
		s-99,44.324-99,99c0,0.334,0.009,0.666,0.013,1H132.441z"/>
</g>
<g>
	<path class="st2" d="M231.432,100c-0.005-0.334-0.025-0.665-0.025-1c0-36.185,29.334-65.519,65.519-65.519
		S362.444,62.815,362.444,99c0,0.335-0.02,0.666-0.025,1h33.494c0.003-0.334,0.013-0.666,0.013-1c0-54.676-44.324-99-99-99
		s-99,44.324-99,99c0,0.334,0.009,0.666,0.013,1H231.432z"/>
	<path class="st3" d="M33.506,100c-0.005-0.334-0.025-0.665-0.025-1c0-36.185,29.334-65.519,65.519-65.519
		S164.519,62.815,164.519,99c0,0.335-0.02,0.666-0.025,1h33.494c0.003-0.334,0.013-0.666,0.013-1c0-54.676-44.324-99-99-99
		S0,44.324,0,99c0,0.334,0.009,0.666,0.013,1H33.506z"/>
</g>
</svg>