<!-- Generator: Adobe Illustrator 22.1.0, SVG Export Plug-In  -->
<svg version="1.1"
	 xmlns="http://www.w3.org/2000/svg" xmlns:xlink="http://www.w3.org/1999/xlink" xmlns:a="http://ns.adobe.com/AdobeSVGViewerExtensions/3.0/"
	 x="0px" y="0px" width="48.296px" height="33.376px" viewBox="0 0 48.296 33.376"
	 style="enable-background:new 0 0 48.296 33.376;" xml:space="preserve">
<style type="text/css">
	.st0{fill:#DEDEDE;}
</style>
<defs>
</defs>
<g>
	<path class="st0" d="M13.104,14c4.815,0,8.288,3.584,8.288,8.624c0,6.16-4.48,10.752-10.752,10.752C4.256,33.376,0,28.448,0,21.393
		C0,8.4,11.872,0.336,25.088,0l-0.111,1.904c-8.96,0.56-17.248,5.824-17.92,14.224C8.4,14.896,10.416,14,13.104,14z M36.425,14
		c4.815,0,8.176,3.584,8.176,8.624c0,6.16-4.368,10.752-10.752,10.752c-6.272,0-10.528-4.928-10.528-11.983
		C23.321,8.4,35.081,0.336,48.296,0l-0.111,1.904c-8.96,0.56-17.248,5.824-17.92,14.224C31.609,14.896,33.737,14,36.425,14z"/>
</g>
</svg>