<svg width="368" height="152" viewBox="0 0 368 152" fill="none" xmlns="http://www.w3.org/2000/svg">
<g clip-path="url(#clip0_447_12)">
<path d="M10.773 151.435L6.66 144.44H1.292V151.435H0V134.374H6.726C8.107 134.374 9.293 134.87 10.285 135.861C11.276 136.852 11.772 138.038 11.772 139.419C11.772 140.574 11.419 141.596 10.712 142.49C10.006 143.384 9.107 143.977 8.019 144.269L12.26 151.434H10.773V151.435ZM1.292 135.592V143.22H6.727C7.767 143.22 8.653 142.85 9.384 142.111C10.115 141.372 10.481 140.474 10.481 139.418C10.481 138.362 10.115 137.46 9.384 136.713C8.653 135.966 7.767 135.592 6.727 135.592H1.292V135.592Z" fill="white"/>
<path d="M16.2319 150.216H24.7629V151.435H14.9399V134.374H24.6409V135.593H16.2319V142.222H24.0319V143.441H16.2319V150.216Z" fill="white"/>
<path d="M34.341 134.374C36.665 134.374 38.586 135.198 40.106 136.848C41.625 138.498 42.384 140.516 42.384 142.905C42.384 145.294 41.625 147.313 40.106 148.962C38.586 150.612 36.665 151.436 34.341 151.436H27.931V134.375H34.341V134.374ZM34.341 150.216C36.324 150.216 37.948 149.513 39.216 148.108C40.484 146.703 41.117 144.968 41.117 142.904C41.117 140.841 40.483 139.106 39.216 137.7C37.949 136.295 36.324 135.592 34.341 135.592H29.223V150.216H34.341V150.216Z" fill="white"/>
<path d="M65.6109 142.27V143.587C65.6109 146.024 64.8309 147.999 63.2709 149.509C61.7109 151.02 59.6959 151.776 57.2259 151.776C54.5939 151.776 52.4129 150.919 50.6819 149.204C48.9519 147.49 48.0859 145.398 48.0859 142.929C48.0859 140.442 48.9429 138.338 50.6579 136.616C52.3719 134.893 54.4969 134.032 57.0309 134.032C58.6229 134.032 60.0779 134.393 61.3939 135.116C62.7099 135.84 63.7329 136.802 64.4639 138.004L61.5879 139.662C61.1819 138.963 60.5679 138.394 59.7479 137.956C58.9259 137.517 58.0119 137.298 57.0049 137.298C55.3799 137.298 54.0439 137.83 52.9959 138.895C51.9479 139.959 51.4239 141.304 51.4239 142.929C51.4239 144.537 51.9559 145.866 53.0209 146.913C54.0849 147.961 55.4949 148.486 57.2499 148.486C58.5499 148.486 59.6259 148.197 60.4799 147.621C61.3329 147.045 61.9139 146.252 62.2229 145.244H57.0559V142.271H65.6109V142.27Z" fill="white"/>
<path d="M71.362 148.217H78.552V151.435H67.999V134.374H78.431V137.591H71.362V141.223H77.821V144.391H71.362V148.217Z" fill="white"/>
<path d="M86.742 151.776C85.051 151.776 83.63 151.398 82.477 150.642C81.322 149.886 80.51 148.859 80.04 147.559L82.916 145.877C83.582 147.616 84.89 148.485 86.84 148.485C87.782 148.485 88.473 148.314 88.912 147.973C89.35 147.632 89.57 147.202 89.57 146.681C89.57 146.08 89.302 145.613 88.766 145.279C88.23 144.947 87.271 144.585 85.89 144.195C85.126 143.967 84.48 143.74 83.952 143.512C83.424 143.284 82.896 142.98 82.368 142.598C81.839 142.216 81.438 141.733 81.161 141.148C80.885 140.562 80.747 139.88 80.747 139.1C80.747 137.557 81.296 136.326 82.392 135.407C83.489 134.489 84.809 134.03 86.353 134.03C87.735 134.03 88.949 134.368 89.997 135.041C91.045 135.716 91.862 136.654 92.446 137.856L89.619 139.489C88.936 138.027 87.848 137.296 86.353 137.296C85.655 137.296 85.106 137.454 84.708 137.771C84.31 138.088 84.111 138.498 84.111 139.002C84.111 139.539 84.333 139.974 84.781 140.307C85.227 140.64 86.085 141.001 87.353 141.391C87.873 141.554 88.267 141.68 88.535 141.769C88.803 141.859 89.168 141.997 89.632 142.183C90.095 142.37 90.452 142.544 90.704 142.707C90.956 142.87 91.244 143.089 91.569 143.365C91.895 143.641 92.142 143.926 92.313 144.218C92.483 144.511 92.63 144.864 92.751 145.278C92.874 145.692 92.934 146.143 92.934 146.631C92.934 148.207 92.361 149.458 91.216 150.384C90.068 151.313 88.577 151.776 86.742 151.776Z" fill="white"/>
<path d="M105.802 134.374V137.591H101.195V151.435H97.832V137.591H93.249V134.374H105.802Z" fill="white"/>
<path d="M107.678 134.374H111.041V151.435H107.678V134.374Z" fill="white"/>
<path d="M128.566 149.204C126.843 150.919 124.747 151.776 122.278 151.776C119.808 151.776 117.715 150.919 116.002 149.204C114.287 147.49 113.43 145.39 113.43 142.904C113.43 140.418 114.287 138.318 116.002 136.603C117.716 134.889 119.808 134.032 122.278 134.032C124.747 134.032 126.843 134.889 128.566 136.603C130.288 138.318 131.15 140.418 131.15 142.904C131.15 145.39 130.288 147.491 128.566 149.204ZM118.353 146.913C119.41 147.961 120.718 148.486 122.278 148.486C123.838 148.486 125.145 147.962 126.202 146.913C127.258 145.865 127.786 144.529 127.786 142.904C127.786 141.279 127.258 139.939 126.202 138.882C125.145 137.826 123.838 137.298 122.278 137.298C120.718 137.298 119.41 137.826 118.353 138.882C117.297 139.939 116.769 141.279 116.769 142.904C116.769 144.529 117.298 145.866 118.353 146.913ZM120.328 132.643H123.351L126.056 129.305H122.278L120.328 132.643Z" fill="white"/>
<path d="M143.384 134.374H146.747V151.435H144.188L136.876 141.003V151.435H133.513V134.374H136.069L143.384 144.767V134.374Z" fill="white"/>
<path d="M161.76 151.776C159.193 151.776 157.072 150.923 155.399 149.217C153.726 147.511 152.889 145.406 152.889 142.904C152.889 140.385 153.726 138.277 155.399 136.579C157.072 134.881 159.193 134.032 161.76 134.032C163.303 134.032 164.73 134.393 166.038 135.116C167.345 135.84 168.365 136.819 169.097 138.053L166.197 139.735C165.774 138.971 165.173 138.374 164.393 137.944C163.614 137.513 162.736 137.298 161.761 137.298C160.104 137.298 158.767 137.818 157.752 138.858C156.736 139.897 156.229 141.246 156.229 142.904C156.229 144.545 156.737 145.886 157.752 146.926C158.768 147.965 160.104 148.486 161.761 148.486C162.736 148.486 163.617 148.27 164.406 147.84C165.194 147.409 165.791 146.82 166.197 146.072L169.097 147.754C168.366 148.989 167.35 149.968 166.05 150.691C164.75 151.415 163.32 151.776 161.76 151.776Z" fill="white"/>
<path d="M177.53 151.776C175.629 151.776 174.069 151.24 172.85 150.168C171.631 149.096 171.022 147.658 171.022 145.853V134.374H174.361V145.585C174.361 146.479 174.616 147.186 175.129 147.706C175.64 148.227 176.441 148.486 177.53 148.486C178.618 148.486 179.418 148.226 179.931 147.706C180.442 147.186 180.699 146.479 180.699 145.585V134.374H184.062V145.853C184.062 147.657 183.453 149.095 182.234 150.168C181.015 151.241 179.447 151.776 177.53 151.776Z" fill="white"/>
<path d="M190.447 148.217H196.955V151.435H187.084V134.374H190.447V148.217Z" fill="white"/>
<path d="M208.411 134.374V137.591H203.804V151.435H200.441V137.591H195.858V134.374H208.411Z" fill="white"/>
<path d="M216.648 151.776C214.747 151.776 213.187 151.24 211.968 150.168C210.749 149.096 210.14 147.658 210.14 145.853V134.374H213.479V145.585C213.479 146.479 213.734 147.186 214.247 147.706C214.758 148.227 215.559 148.486 216.648 148.486C217.736 148.486 218.536 148.226 219.049 147.706C219.56 147.186 219.817 146.479 219.817 145.585V134.374H223.18V145.853C223.18 147.657 222.571 149.095 221.352 150.168C220.133 151.241 218.565 151.776 216.648 151.776Z" fill="white"/>
<path d="M235.562 151.435L232.113 145.512H229.566V151.435H226.203V134.374H233.027C234.602 134.374 235.944 134.927 237.049 136.031C238.153 137.136 238.706 138.468 238.706 140.028C238.706 141.085 238.405 142.064 237.804 142.965C237.204 143.867 236.407 144.546 235.416 145.001L239.194 151.435H235.562V151.435ZM229.566 137.517V142.563H233.027C233.661 142.563 234.204 142.315 234.66 141.819C235.115 141.324 235.343 140.727 235.343 140.028C235.343 139.33 235.115 138.736 234.66 138.249C234.204 137.761 233.661 137.517 233.027 137.517H229.566Z" fill="white"/>
<path d="M252.382 151.435L251.297 148.364H244.289L243.265 151.435H239.634L245.605 134.374H249.773L255.792 151.435H252.382ZM245.384 145.22H250.186L247.724 138.249L245.384 145.22Z" fill="white"/>
<path d="M260.812 148.217H267.32V151.435H257.449V134.374H260.812V148.217Z" fill="white"/>
<path d="M279.31 134.374C280.837 134.374 282.105 134.877 283.112 135.884C284.119 136.892 284.623 138.151 284.623 139.663C284.623 141.173 284.119 142.429 283.112 143.429C282.105 144.428 280.837 144.928 279.31 144.928H274.801V151.436H273.509V134.375H279.31V134.374ZM279.31 143.709C280.48 143.709 281.443 143.327 282.198 142.564C282.953 141.801 283.332 140.833 283.332 139.664C283.332 138.478 282.954 137.503 282.198 136.739C281.442 135.975 280.48 135.594 279.31 135.594H274.801V143.71H279.31V143.709Z" fill="white"/>
<path d="M298.358 150.07C297.213 151.159 295.697 151.703 293.812 151.703C291.927 151.703 290.416 151.159 289.279 150.07C288.142 148.981 287.573 147.536 287.573 145.732V134.374H288.865V145.732C288.865 147.162 289.296 148.307 290.157 149.168C291.018 150.03 292.237 150.46 293.813 150.46C295.389 150.46 296.612 150.03 297.482 149.168C298.35 148.307 298.786 147.162 298.786 145.732V134.374H300.078V145.732C300.076 147.536 299.504 148.981 298.358 150.07ZM292.764 132.668L293.949 132.663L296.16 129.563L294.714 129.573L292.764 132.668Z" fill="white"/>
<path d="M313.165 142.588C314.042 142.929 314.749 143.474 315.285 144.22C315.821 144.968 316.089 145.821 316.089 146.78C316.089 148.064 315.634 149.161 314.725 150.07C313.815 150.98 312.718 151.435 311.434 151.435H304.074V134.374H310.874C312.109 134.374 313.166 134.812 314.043 135.69C314.92 136.567 315.359 137.624 315.359 138.859C315.359 139.671 315.16 140.406 314.762 141.065C314.362 141.722 313.831 142.23 313.165 142.588ZM310.873 135.592H305.365V142.123H310.873C311.75 142.123 312.502 141.803 313.128 141.161C313.753 140.52 314.066 139.752 314.066 138.858C314.066 137.964 313.753 137.197 313.128 136.554C312.502 135.914 311.75 135.592 310.873 135.592ZM311.434 150.216C312.36 150.216 313.152 149.879 313.811 149.204C314.469 148.531 314.797 147.722 314.797 146.78C314.797 145.838 314.469 145.029 313.811 144.355C313.152 143.681 312.36 143.343 311.434 143.343H305.365V150.217H311.434V150.216Z" fill="white"/>
<path d="M320.549 150.216H328.592V151.435H319.257V134.374H320.549V150.216Z" fill="white"/>
<path d="M331.273 134.374H332.565V151.435H331.273V134.374Z" fill="white"/>
<path d="M344.702 151.703C342.135 151.703 340.014 150.854 338.341 149.156C336.668 147.458 335.831 145.375 335.831 142.904C335.831 140.433 336.668 138.351 338.341 136.652C340.014 134.954 342.135 134.105 344.702 134.105C346.262 134.105 347.692 134.475 348.992 135.214C350.292 135.953 351.299 136.949 352.014 138.199L350.869 138.858C350.3 137.801 349.464 136.952 348.359 136.311C347.254 135.669 346.035 135.348 344.703 135.348C342.494 135.348 340.677 136.075 339.256 137.53C337.834 138.984 337.123 140.775 337.123 142.904C337.123 145.033 337.834 146.824 339.256 148.278C340.678 149.733 342.494 150.459 344.703 150.459C346.035 150.459 347.262 150.134 348.384 149.485C349.505 148.835 350.35 147.965 350.918 146.877L352.064 147.536C351.365 148.803 350.358 149.814 349.041 150.57C347.725 151.325 346.279 151.703 344.702 151.703Z" fill="white"/>
<path d="M366.345 151.435L364.68 147.097H356.139L354.475 151.435H353.111L359.739 134.374H361.105L367.71 151.435H366.345ZM356.606 145.878H364.213L360.409 135.964L356.606 145.878Z" fill="white"/>
<path d="M327.307 0C338.727 0 348.316 3.718 356.075 11.154C363.831 18.587 367.711 28.07 367.711 39.596C367.711 51.127 363.832 60.607 356.075 68.041C348.316 75.477 338.728 79.195 327.307 79.195H312.277V113.133H283.347V0H327.307ZM327.307 51.719C330.54 51.719 333.26 50.587 335.469 48.324C337.676 46.061 338.781 43.151 338.781 39.595C338.781 36.041 337.675 33.16 335.469 30.951C333.26 28.742 330.54 27.636 327.307 27.636H312.277V51.719H327.307V51.719Z" fill="white"/>
<path d="M243.816 118.184C226.792 118.184 212.706 112.555 201.555 101.296C190.404 90.0371 184.828 76.0021 184.828 59.1941C184.828 42.3861 190.404 28.3531 201.555 17.0941C212.706 5.83506 226.792 0.206055 243.816 0.206055C254.051 0.206055 263.534 2.62806 272.261 7.47806C280.99 12.3271 287.83 18.8471 292.787 27.0351L267.734 41.4191C265.579 37.4321 262.374 34.2811 258.12 31.9641C253.861 29.6471 249.093 28.4871 243.816 28.4871C234.766 28.4871 227.467 31.3171 221.917 36.9721C216.367 42.6301 213.596 50.0401 213.596 59.1941C213.596 68.3541 216.367 75.7591 221.917 81.4161C227.467 87.0741 234.767 89.9011 243.816 89.9011C249.094 89.9011 253.861 88.7441 258.12 86.4271C262.374 84.1101 265.579 80.9051 267.734 76.8101L292.787 91.3561C287.83 99.6541 281.012 106.199 272.343 110.992C263.667 115.785 254.158 118.184 243.816 118.184Z" fill="white"/>
<path d="M194.267 50.9521V62.4261C194.267 79.0191 189.069 92.4611 178.672 102.748C168.273 113.039 154.777 118.184 138.186 118.184C120.515 118.184 105.998 112.526 94.6311 101.214C83.262 89.9011 77.5811 75.9481 77.5811 59.3551C77.5811 42.7641 83.2361 28.7581 94.5491 17.3351C105.864 5.91705 119.868 0.206055 136.569 0.206055C147.127 0.206055 156.798 2.57705 165.581 7.31605C174.361 12.0581 181.23 18.3621 186.187 26.2261L161.62 40.2861C159.36 36.7301 156.044 33.8771 151.683 31.7191C147.319 29.5661 142.39 28.4861 136.894 28.4861C127.95 28.4861 120.624 31.3961 114.915 37.2151C109.204 43.0321 106.35 50.4671 106.35 59.5171C106.35 68.2461 109.178 75.6251 114.833 81.6601C120.491 87.6951 128.434 90.7101 138.672 90.7101C151.817 90.7101 160.489 85.7551 164.692 75.8411H137.217V50.9521H194.267Z" fill="white"/>
<path d="M58.991 115.759L39.272 79.235H28.93V115.759H0V2.62695H45.253C56.781 2.62695 66.449 6.31895 74.262 13.698C82.072 21.08 85.98 30.425 85.98 41.74C85.98 48.527 84.256 54.749 80.807 60.406C77.359 66.061 72.671 70.561 66.746 73.9L90.02 115.759H58.991V115.759ZM28.93 29.294V54.67H44.93C48.486 54.778 51.396 53.646 53.656 51.275C55.919 48.907 57.051 45.835 57.051 42.061C57.051 38.292 55.919 35.221 53.656 32.85C51.396 30.482 48.486 29.294 44.93 29.294H28.93Z" fill="white"/>
</g>
<defs>
<clipPath id="clip0_447_12">
<rect width="367.711" height="151.776" fill="white"/>
</clipPath>
</defs>
</svg>
