<svg width="478" height="167" viewBox="0 0 478 167" fill="none" xmlns="http://www.w3.org/2000/svg">
<path d="M34.611 107.597V115.233H9.462V133.41H30.212V140.714H9.462V166.195H0V107.597H34.611Z" fill="white"/>
<path d="M52.917 107.597V142.374C52.917 147.576 54.0514 151.449 56.32 153.994C58.644 156.54 61.881 157.812 66.031 157.812C70.1257 157.812 73.3074 156.54 75.576 153.994C77.9 151.449 79.062 147.576 79.062 142.374V107.597H88.524V142.374C88.524 150.398 86.449 156.484 82.299 160.634C78.149 164.729 72.671 166.776 65.865 166.776C59.1144 166.776 53.6917 164.729 49.597 160.634C45.5024 156.484 43.455 150.398 43.455 142.374V107.597H52.917Z" fill="white"/>
<path d="M147.778 166.195H138.316L109.847 122.952V166.195H100.385V107.68H109.847L138.316 151.089V107.68H147.778V166.195Z" fill="white"/>
<path d="M210.358 136.813C210.358 142.734 209.141 147.908 206.706 152.334C204.327 156.706 200.813 160.109 196.165 162.543C191.573 164.978 186.067 166.195 179.648 166.195H160.06V107.597H179.648C186.067 107.597 191.573 108.815 196.165 111.249C200.813 113.629 204.327 117.004 206.706 121.375C209.141 125.747 210.358 130.893 210.358 136.813ZM178.901 157.646C185.929 157.646 191.324 155.82 195.086 152.168C198.849 148.516 200.73 143.398 200.73 136.813C200.73 130.229 198.849 125.11 195.086 121.458C191.324 117.806 185.929 115.98 178.901 115.98H169.522V157.646H178.901Z" fill="white"/>
<path d="M255.652 153.496H230.918L226.436 166.195H216.31L237.89 108.51H248.763L270.26 166.195H260.134L255.652 153.496ZM252.996 146.192L243.285 118.802L233.574 146.192H252.996Z" fill="white"/>
<path d="M304.26 107.016C311.453 107.016 317.429 108.842 322.188 112.494C326.947 116.146 330.156 121.099 331.816 127.351H321.773C320.39 123.81 318.176 121.016 315.133 118.968C312.145 116.866 308.465 115.814 304.094 115.814C300.608 115.814 297.482 116.672 294.715 118.387C292.004 120.103 289.846 122.565 288.241 125.774C286.692 128.928 285.917 132.636 285.917 136.896C285.917 141.102 286.692 144.809 288.241 148.018C289.846 151.172 292.004 153.607 294.715 155.322C297.482 157.038 300.608 157.895 304.094 157.895C308.465 157.895 312.145 156.872 315.133 154.824C318.176 152.722 320.39 149.927 321.773 146.441H331.816C330.156 152.694 326.947 157.646 322.188 161.298C317.429 164.895 311.453 166.693 304.26 166.693C298.727 166.693 293.83 165.448 289.569 162.958C285.308 160.413 282.016 156.899 279.692 152.417C277.368 147.88 276.206 142.706 276.206 136.896C276.206 131.086 277.368 125.94 279.692 121.458C282.016 116.921 285.308 113.38 289.569 110.834C293.83 108.289 298.727 107.016 304.26 107.016Z" fill="white"/>
<path d="M351.548 107.597V166.195H342.086V107.597H351.548Z" fill="white"/>
<path d="M390.97 106.85C396.392 106.85 401.289 108.123 405.661 110.668C410.087 113.214 413.546 116.783 416.036 121.375C418.581 125.913 419.854 131.059 419.854 136.813C419.854 142.568 418.581 147.742 416.036 152.334C413.546 156.872 410.087 160.441 405.661 163.041C401.289 165.587 396.392 166.859 390.97 166.859C385.492 166.859 380.539 165.587 376.113 163.041C371.741 160.441 368.283 156.872 365.738 152.334C363.192 147.742 361.92 142.568 361.92 136.813C361.92 131.059 363.192 125.913 365.738 121.375C368.283 116.783 371.741 113.214 376.113 110.668C380.539 108.123 385.492 106.85 390.97 106.85ZM390.97 115.648C387.207 115.648 383.859 116.506 380.927 118.221C377.994 119.937 375.698 122.399 374.038 125.608C372.433 128.818 371.631 132.553 371.631 136.813C371.631 141.074 372.433 144.809 374.038 148.018C375.698 151.228 377.994 153.69 380.927 155.405C383.859 157.121 387.207 157.978 390.97 157.978C394.677 157.978 397.969 157.121 400.847 155.405C403.779 153.69 406.048 151.228 407.653 148.018C409.313 144.809 410.143 141.074 410.143 136.813C410.143 132.553 409.313 128.818 407.653 125.608C406.048 122.399 403.779 119.937 400.847 118.221C397.969 116.506 394.677 115.648 390.97 115.648ZM404.084 94.6492L385.741 104.028V97.3882L404.084 87.2622V94.6492Z" fill="white"/>
<path d="M477.625 166.195H468.163L439.694 122.952V166.195H430.232V107.68H439.694L468.163 151.089V107.68H477.625V166.195Z" fill="white"/>
<path d="M319.254 96.3907C319.249 96.0687 319.23 95.7497 319.23 95.4268C319.23 60.5478 347.505 32.2726 382.384 32.2726C417.263 32.2726 445.539 60.5478 445.539 95.4268C445.539 95.7497 445.519 96.0687 445.514 96.3907H477.8C477.802 96.0687 477.812 95.7487 477.812 95.4268C477.812 42.7242 435.088 0 382.385 0C329.683 0 286.958 42.7242 286.958 95.4268C286.958 95.7487 286.967 96.0687 286.971 96.3907H319.254Z" fill="white"/>
<path d="M128.473 96.3907C128.468 96.0687 128.449 95.7497 128.449 95.4268C128.449 60.5478 156.724 32.2726 191.603 32.2726C226.482 32.2726 254.756 60.5478 254.756 95.4268C254.756 95.7497 254.737 96.0687 254.732 96.3907H287.017C287.02 96.0687 287.03 95.7487 287.03 95.4268C287.03 42.7242 244.305 0 191.603 0C138.9 0 96.176 42.7242 96.176 95.4268C96.176 95.7487 96.1847 96.0687 96.1886 96.3907H128.473Z" fill="white"/>
<path d="M223.891 96.3907C223.886 96.0687 223.867 95.7497 223.867 95.4268C223.867 60.5478 252.142 32.2726 287.021 32.2726C321.9 32.2726 350.174 60.5478 350.174 95.4268C350.174 95.7497 350.155 96.0687 350.15 96.3907H382.435C382.438 96.0687 382.448 95.7487 382.448 95.4268C382.448 42.7242 339.723 0 287.021 0C234.318 0 191.594 42.7242 191.594 95.4268C191.594 95.7487 191.603 96.0687 191.607 96.3907H223.891Z" fill="white"/>
<path d="M33.1084 96.3907C33.1036 96.0687 33.0843 95.7497 33.0843 95.4268C33.0843 60.5478 61.3596 32.2726 96.2385 32.2726C131.118 32.2726 159.393 60.5478 159.393 95.4268C159.393 95.7497 159.373 96.0687 159.369 96.3907H191.654C191.657 96.0687 191.666 95.7487 191.666 95.4268C191.666 42.7242 148.942 0 96.2395 0C43.5369 0 0.811768 42.7242 0.811768 95.4268C0.811768 95.7487 0.820443 96.0687 0.824298 96.3907H33.1084Z" fill="white"/>
</svg>
