<svg width="478" height="167" viewBox="0 0 478 167" fill="none" xmlns="http://www.w3.org/2000/svg">
<path d="M34.7992 107.597V115.233H9.65023V133.41H30.4002V140.714H9.65023V166.195H0.188232V107.597H34.7992Z" fill="black"/>
<path d="M53.1053 107.597V142.374C53.1053 147.576 54.2396 151.449 56.5083 153.994C58.8323 156.54 62.0693 157.812 66.2193 157.812C70.3139 157.812 73.4956 156.54 75.7643 153.994C78.0883 151.449 79.2503 147.576 79.2503 142.374V107.597H88.7123V142.374C88.7123 150.398 86.6373 156.484 82.4873 160.634C78.3373 164.729 72.8593 166.776 66.0533 166.776C59.3026 166.776 53.8799 164.729 49.7853 160.634C45.6906 156.484 43.6433 150.398 43.6433 142.374V107.597H53.1053Z" fill="black"/>
<path d="M147.966 166.195H138.504L110.035 122.952V166.195H100.573V107.68H110.035L138.504 151.089V107.68H147.966V166.195Z" fill="black"/>
<path d="M210.547 136.813C210.547 142.734 209.329 147.908 206.895 152.334C204.515 156.706 201.002 160.109 196.354 162.543C191.761 164.978 186.255 166.195 179.837 166.195H160.249V107.597H179.837C186.255 107.597 191.761 108.815 196.354 111.249C201.002 113.629 204.515 117.004 206.895 121.375C209.329 125.747 210.547 130.893 210.547 136.813ZM179.09 157.646C186.117 157.646 191.512 155.82 195.275 152.168C199.037 148.516 200.919 143.398 200.919 136.813C200.919 130.229 199.037 125.11 195.275 121.458C191.512 117.806 186.117 115.98 179.09 115.98H169.711V157.646H179.09Z" fill="black"/>
<path d="M255.84 153.496H231.106L226.624 166.195H216.498L238.078 108.51H248.951L270.448 166.195H260.322L255.84 153.496ZM253.184 146.192L243.473 118.802L233.762 146.192H253.184Z" fill="black"/>
<path d="M304.448 107.016C311.641 107.016 317.617 108.842 322.376 112.494C327.135 116.146 330.344 121.099 332.004 127.351H321.961C320.578 123.81 318.364 121.016 315.321 118.968C312.333 116.866 308.653 115.814 304.282 115.814C300.796 115.814 297.67 116.672 294.903 118.387C292.192 120.103 290.034 122.565 288.429 125.774C286.88 128.928 286.105 132.636 286.105 136.896C286.105 141.102 286.88 144.809 288.429 148.018C290.034 151.172 292.192 153.607 294.903 155.322C297.67 157.038 300.796 157.895 304.282 157.895C308.653 157.895 312.333 156.872 315.321 154.824C318.364 152.722 320.578 149.927 321.961 146.441H332.004C330.344 152.694 327.135 157.646 322.376 161.298C317.617 164.895 311.641 166.693 304.448 166.693C298.915 166.693 294.018 165.448 289.757 162.958C285.496 160.413 282.204 156.899 279.88 152.417C277.556 147.88 276.394 142.706 276.394 136.896C276.394 131.086 277.556 125.94 279.88 121.458C282.204 116.921 285.496 113.38 289.757 110.834C294.018 108.289 298.915 107.016 304.448 107.016Z" fill="black"/>
<path d="M351.737 107.597V166.195H342.275V107.597H351.737Z" fill="black"/>
<path d="M391.158 106.85C396.58 106.85 401.477 108.123 405.849 110.668C410.275 113.214 413.734 116.783 416.224 121.375C418.769 125.913 420.042 131.059 420.042 136.813C420.042 142.568 418.769 147.742 416.224 152.334C413.734 156.872 410.275 160.441 405.849 163.041C401.477 165.587 396.58 166.859 391.158 166.859C385.68 166.859 380.727 165.587 376.301 163.041C371.929 160.441 368.471 156.872 365.926 152.334C363.38 147.742 362.108 142.568 362.108 136.813C362.108 131.059 363.38 125.913 365.926 121.375C368.471 116.783 371.929 113.214 376.301 110.668C380.727 108.123 385.68 106.85 391.158 106.85ZM391.158 115.648C387.395 115.648 384.047 116.506 381.115 118.221C378.182 119.937 375.886 122.399 374.226 125.608C372.621 128.818 371.819 132.553 371.819 136.813C371.819 141.074 372.621 144.809 374.226 148.018C375.886 151.228 378.182 153.69 381.115 155.405C384.047 157.121 387.395 157.978 391.158 157.978C394.865 157.978 398.157 157.121 401.035 155.405C403.967 153.69 406.236 151.228 407.841 148.018C409.501 144.809 410.331 141.074 410.331 136.813C410.331 132.553 409.501 128.818 407.841 125.608C406.236 122.399 403.967 119.937 401.035 118.221C398.157 116.506 394.865 115.648 391.158 115.648ZM404.272 94.6492L385.929 104.028V97.3882L404.272 87.2622V94.6492Z" fill="black"/>
<path d="M477.813 166.195H468.351L439.882 122.952V166.195H430.42V107.68H439.882L468.351 151.089V107.68H477.813V166.195Z" fill="black"/>
<path d="M319.442 96.3907C319.438 96.0687 319.418 95.7497 319.418 95.4268C319.418 60.5478 347.694 32.2726 382.573 32.2726C417.452 32.2726 445.727 60.5478 445.727 95.4268C445.727 95.7497 445.707 96.0687 445.703 96.3907H477.988C477.991 96.0687 478 95.7487 478 95.4268C478 42.7242 435.276 0 382.574 0C329.871 0 287.147 42.7242 287.147 95.4268C287.147 95.7487 287.155 96.0687 287.159 96.3907H319.442Z" fill="#E1824B"/>
<path d="M128.661 96.3907C128.656 96.0687 128.637 95.7497 128.637 95.4268C128.637 60.5478 156.912 32.2726 191.791 32.2726C226.67 32.2726 254.944 60.5478 254.944 95.4268C254.944 95.7497 254.925 96.0687 254.92 96.3907H287.205C287.208 96.0687 287.218 95.7487 287.218 95.4268C287.218 42.7242 244.494 0 191.791 0C139.088 0 96.3643 42.7242 96.3643 95.4268C96.3643 95.7487 96.3729 96.0687 96.3768 96.3907H128.661Z" fill="#2A8D68"/>
<path d="M224.079 96.3907C224.074 96.0687 224.055 95.7497 224.055 95.4268C224.055 60.5478 252.33 32.2726 287.209 32.2726C322.088 32.2726 350.362 60.5478 350.362 95.4268C350.362 95.7497 350.343 96.0687 350.338 96.3907H382.623C382.626 96.0687 382.636 95.7487 382.636 95.4268C382.636 42.7242 339.912 0 287.209 0C234.506 0 191.782 42.7242 191.782 95.4268C191.782 95.7487 191.791 96.0687 191.795 96.3907H224.079Z" fill="#58B8BC"/>
<path d="M33.2967 96.3907C33.2918 96.0687 33.2726 95.7497 33.2726 95.4268C33.2726 60.5478 61.5478 32.2726 96.4268 32.2726C131.306 32.2726 159.581 60.5478 159.581 95.4268C159.581 95.7497 159.562 96.0687 159.557 96.3907H191.842C191.845 96.0687 191.855 95.7487 191.855 95.4268C191.855 42.7242 149.13 0 96.4277 0C43.7252 0 1 42.7242 1 95.4268C1 95.7487 1.00868 96.0687 1.01253 96.3907H33.2967Z" fill="#BA1D4E"/>
</svg>
